# Wavefront OBJ file
# Exported by Misfit Model 3D 1.3.8
# Thu Feb 14 19:10:48 2013

mtllib piece3.mtl

# 41 Vertices
v -0.317502 -0.079758 -0.2808
v -0.294402 -0.085158 -0.3168
v -0.197202 -0.138258 -0.2757
v -0.104202 0.008142 -0.3252
v -0.109302 -0.182658 -0.2175
v 0.274698 0.016242 -0.2604
v 0.015498 -0.241458 -0.1848
v 0.438798 -0.053958 -0.1833
v 0.380298 -0.041058 0.066
v -0.011802 -0.224658 -0.0387
v -0.058002 -0.205458 0.1242
v -0.250602 -0.022458 -0.2871
v -0.160002 0.036042 -0.3345
v -0.206802 0.086442 -0.0612
v -0.058902 0.095142 -0.3105
v 0.001698 0.138342 -0.3306
v -0.022602 0.157542 -0.1968
v -0.044202 0.187542 -0.1386
v 0.142698 0.096342 -0.2898
v 0.186498 0.079842 -0.0948
v 0.013698 -0.080658 0.4314
v -0.119502 0.252342 0.1551
v -0.365802 -0.026658 -0.1371
v -0.317802 -0.049158 -0.1983
v -0.313602 -0.064458 -0.2835
v 0.034998 0.140142 -0.3348
v 0.033498 0.125742 -0.3639
v -0.423102 0.059442 0.252
v 0.012798 0.157842 -0.201
v -0.009702 0.187842 -0.1323
v -0.318402 -0.058158 -0.1959
v -0.367302 -0.042858 -0.1245
v -0.396402 -0.011058 0.0468
v -0.396702 0.000042 0.045
v -0.369702 -0.032058 0.1992
v -0.256002 -0.098058 -0.0912
v -0.249702 -0.095058 0.1986
v -0.139302 -0.150558 0.1089
v -0.126702 -0.164358 -0.066
v -0.204102 -0.123858 0.2682
v -0.081702 0.201042 -0.0207

# 234 Texture Coordinates
vt -0.8414 0.4045
vt -0.8442 0.4028
vt -0.8589 0.4031
vt -0.8442 0.4028
vt -0.8589 0.4031
vt -0.8589 0.4031
vt -0.8589 0.4031
vt -0.8589 0.4031
vt -0.8736 0.4046
vt -0.8589 0.4031
vt -0.8737 0.4033
vt -0.8736 0.4046
vt -0.8736 0.4046
vt -0.8737 0.4033
vt -0.9012 0.4038
vt -0.8737 0.4033
vt -0.9012 0.4027
vt -0.9012 0.4038
vt 0.4985 0.4189
vt 0.4398 0.6294
vt 0.4875 0.4033
vt 0.4985 0.4189
vt 0.4444 0.6313
vt 0.4398 0.6294
vt 0.4442 0.6374
vt 0.4444 0.6313
vt 0.4985 0.4189
vt 1.3958 0.4158
vt 1.4544 0.4581
vt 1.4502 0.4065
vt 1.4502 0.4065
vt 1.4544 0.4581
vt 1.5057 0.4134
vt 1.5439 0.4103
vt 1.5057 0.4134
vt 1.5444 0.4446
vt 1.5057 0.4134
vt 1.4544 0.4581
vt 1.5444 0.4446
vt 1.5444 0.4446
vt 1.4544 0.4581
vt 1.5525 0.4688
vt 0.6553 0.5449
vt 0.6138 0.5848
vt 0.579 0.5408
vt 0.579 0.5408
vt 0.6138 0.5848
vt 0.4947 0.5449
vt 0.6138 0.5848
vt 0.4947 0.5844
vt 0.4947 0.5449
vt 0.4947 0.5844
vt 0.6138 0.5848
vt 0.4947 0.7484
vt 0.6138 0.5848
vt 0.67 0.6944
vt 0.4947 0.7484
vt 1.3611 0.47
vt 1.4544 0.4581
vt 1.363 0.437
vt 1.4544 0.4581
vt 1.3958 0.4158
vt 1.363 0.437
vt 1.363 0.437
vt 1.3958 0.4158
vt 1.3581 0.4153
vt -0.8414 0.4045
vt -0.859 0.4047
vt -0.8442 0.4028
vt -0.8442 0.4028
vt -0.859 0.4047
vt -0.8589 0.4031
vt -0.859 0.4047
vt -0.8827 0.404
vt -0.8589 0.4031
vt 0.9571 0.6773
vt 0.8491 0.5978
vt 0.8649 0.729
vt 0.7064 0.5428
vt 0.7032 0.5768
vt 0.6553 0.5449
vt 0.6553 0.5449
vt 0.7032 0.5768
vt 0.6138 0.5848
vt 0.7032 0.5768
vt 0.7125 0.6111
vt 0.6138 0.5848
vt 0.6138 0.5848
vt 0.7125 0.6111
vt 0.67 0.6944
vt -0.8431 0.4031
vt -0.8442 0.4028
vt -0.8398 0.4048
vt -0.8398 0.4048
vt -0.8442 0.4028
vt -0.8398 0.4048
vt -0.8442 0.4028
vt -0.8414 0.4045
vt -0.8398 0.4048
vt -0.8398 0.4048
vt -0.8414 0.4045
vt -0.842 0.4094
vt -0.8414 0.4045
vt -0.8431 0.4093
vt -0.842 0.4094
vt -0.842 0.4094
vt -0.8431 0.4093
vt -0.8369 0.4153
vt -0.8431 0.4093
vt -0.8392 0.4156
vt -0.8369 0.4153
vt -0.8392 0.4156
vt -0.8402 0.4235
vt -0.8369 0.4153
vt -0.8369 0.4153
vt -0.8402 0.4235
vt -0.8388 0.4236
vt -0.8402 0.4235
vt -0.8345 0.4299
vt -0.8388 0.4236
vt -0.0066 0.6493
vt 0.0081 0.593
vt 0.0432 0.6334
vt 0.0081 0.593
vt 0.0694 0.5307
vt 0.0432 0.6334
vt 0.0432 0.6334
vt 0.0694 0.5307
vt 0.0926 0.6296
vt 0.0694 0.5307
vt 0.149 0.5659
vt 0.0926 0.6296
vt 0.149 0.5659
vt 0.0694 0.5307
vt 0.1396 0.5205
vt 0.0694 0.5307
vt 0.0803 0.4637
vt 0.1396 0.5205
vt 0.1396 0.5205
vt 0.0803 0.4637
vt 0.1325 0.4705
vt -1.662 0.4465
vt -1.658 0.4413
vt -1.6398 0.4463
vt -1.6398 0.4463
vt -1.658 0.4413
vt -1.6427 0.4378
vt -1.6398 0.4463
vt -1.6427 0.4378
vt -1.624 0.4317
vt -1.6427 0.4378
vt -1.6271 0.4248
vt -1.624 0.4317
vt -1.624 0.4317
vt -1.6271 0.4248
vt -1.6052 0.4203
vt -1.6029 0.4301
vt -1.6052 0.4203
vt -1.5907 0.4183
vt -1.6076 0.3923
vt -1.6063 0.4052
vt -1.6275 0.3938
vt -1.6275 0.3938
vt -1.6063 0.4052
vt -1.6253 0.4051
vt -1.6253 0.4051
vt -1.6063 0.4052
vt -1.6271 0.4248
vt -1.6063 0.4052
vt -1.6061 0.4144
vt -1.6271 0.4248
vt -0.8431 0.4031
vt -0.8398 0.4048
vt -0.8442 0.4028
vt -0.8398 0.4048
vt -0.8398 0.4048
vt -0.8442 0.4028
vt -0.8442 0.4028
vt -0.8398 0.4048
vt -0.8414 0.4045
vt -0.8398 0.4048
vt -0.8425 0.4108
vt -0.8414 0.4045
vt -0.8414 0.4045
vt -0.8425 0.4108
vt -0.846 0.4103
vt -0.846 0.4103
vt -0.8425 0.4108
vt -0.8407 0.416
vt -0.8425 0.4108
vt -0.8369 0.4153
vt -0.8407 0.416
vt -0.8369 0.4153
vt -0.8388 0.4236
vt -0.8407 0.416
vt -0.8407 0.416
vt -0.8388 0.4236
vt -0.8362 0.4277
vt 0.9571 0.6773
vt 0.9439 0.6131
vt 0.8491 0.5978
vt 0.8491 0.5978
vt 0.9439 0.6131
vt 0.9492 0.5826
vt 0.7469 0.6719
vt 0.8491 0.5978
vt 0.749 0.6226
vt 0.749 0.6226
vt 0.8491 0.5978
vt 0.7472 0.5761
vt -0.8431 0.4031
vt -0.8377 0.4043
vt -0.8398 0.4048
vt -0.8431 0.4031
vt -0.8398 0.4048
vt -0.8377 0.4043
vt 0.0193 0.4772
vt 0.0803 0.4637
vt 0.02 0.5056
vt 0.0803 0.4637
vt 0.0694 0.5307
vt 0.02 0.5056
vt 0.02 0.5056
vt 0.0694 0.5307
vt 0.0077 0.5432
vt 0.0694 0.5307
vt 0.0081 0.593
vt 0.0077 0.5432
vt -1.624 0.4317
vt -1.6029 0.4301
vt -1.6398 0.4463
vt -1.624 0.4317
vt -1.6052 0.4203
vt -1.6029 0.4301

# 234 Vertex Normals
vn -0.926748 -0.345019 -0.148659
vn -0.484342 -0.522563 -0.70167
vn -0.325751 -0.906972 -0.266999
vn -0.529385 0.003636 -0.848374
vn 0.042009 -0.196634 -0.979577
vn -0.325751 -0.906972 -0.266999
vn -0.325751 -0.906972 -0.266999
vn 0.042009 -0.196634 -0.979577
vn -0.176185 -0.83413 -0.522672
vn 0.042009 -0.196634 -0.979577
vn 0.155639 -0.351383 -0.923204
vn -0.176185 -0.83413 -0.522672
vn -0.176185 -0.83413 -0.522672
vn 0.155639 -0.351383 -0.923204
vn 0.163821 -0.912007 -0.376041
vn 0.155639 -0.351383 -0.923204
vn 0.366089 -0.823007 -0.434326
vn 0.163821 -0.912007 -0.376041
vn 0.379619 -0.903118 0.200665
vn 0.163821 -0.912007 -0.376041
vn 0.366089 -0.823007 -0.434326
vn 0.379619 -0.903118 0.200665
vn -0.216333 -0.973004 0.080393
vn 0.163821 -0.912007 -0.376041
vn -0.107221 -0.980218 0.16636
vn -0.216333 -0.973004 0.080393
vn 0.379619 -0.903118 0.200665
vn -0.530816 0.731468 -0.428006
vn -0.542565 0.775135 -0.323711
vn -0.36298 0.703343 -0.611191
vn -0.36298 0.703343 -0.611191
vn -0.542565 0.775135 -0.323711
vn -0.476902 0.642096 -0.600231
vn -0.363954 0.836617 -0.409402
vn -0.476902 0.642096 -0.600231
vn -0.278086 0.902143 -0.329858
vn -0.476902 0.642096 -0.600231
vn -0.542565 0.775135 -0.323711
vn -0.278086 0.902143 -0.329858
vn -0.278086 0.902143 -0.329858
vn -0.542565 0.775135 -0.323711
vn -0.307581 0.877602 -0.367706
vn 0.475577 0.80275 -0.359748
vn 0.489023 0.870357 0.057759
vn 0.489079 0.719307 -0.493356
vn 0.489079 0.719307 -0.493356
vn 0.489023 0.870357 0.057759
vn 0.462533 0.886343 -0.021418
vn 0.489023 0.870357 0.057759
vn 0.380123 0.898939 0.217748
vn 0.462533 0.886343 -0.021418
vn 0.380123 0.898939 0.217748
vn 0.489023 0.870357 0.057759
vn 0.139233 0.773956 0.617743
vn 0.489023 0.870357 0.057759
vn 0.185771 0.684916 0.704542
vn 0.139233 0.773956 0.617743
vn -0.875678 0.225717 -0.426896
vn -0.542565 0.775135 -0.323711
vn -0.813955 0.487037 -0.316657
vn -0.542565 0.775135 -0.323711
vn -0.530816 0.731468 -0.428006
vn -0.813955 0.487037 -0.316657
vn -0.813955 0.487037 -0.316657
vn -0.530816 0.731468 -0.428006
vn -0.772852 0.491196 -0.401779
vn 0.142907 0.957663 -0.249919
vn 0.475577 0.80275 -0.359748
vn -0.209135 0.728065 -0.652828
vn -0.342101 0.107815 -0.933457
vn 0.258759 -0.365482 -0.894129
vn 0.042009 -0.196634 -0.979577
vn 0.550612 0.534598 -0.641117
vn 0.381668 0.087178 -0.920179
vn 0.042009 -0.196634 -0.979577
vn -0.510141 0.857513 0.066546
vn -0.542565 0.775135 -0.323711
vn -0.929065 0.303098 -0.212058
vn 0.142907 0.957663 -0.249919
vn 0.25721 0.950916 -0.17205
vn 0.475577 0.80275 -0.359748
vn 0.46362 0.875873 -0.1338
vn 0.25721 0.950916 -0.17205
vn 0.489023 0.870357 0.057759
vn 0.25721 0.950916 -0.17205
vn 0.116917 0.956471 -0.267384
vn 0.489023 0.870357 0.057759
vn 0.489023 0.870357 0.057759
vn 0.116917 0.956471 -0.267384
vn -0.071386 0.992807 0.096117
vn 0.042009 -0.196634 -0.979577
vn -0.433211 0.273325 -0.858849
vn -0.537632 0.605593 -0.586693
vn -0.537632 0.605593 -0.586693
vn -0.433211 0.273325 -0.858849
vn -0.772852 0.491196 -0.401779
vn -0.529385 0.003636 -0.848374
vn -0.926748 -0.345019 -0.148659
vn -0.772852 0.491196 -0.401779
vn -0.772852 0.491196 -0.401779
vn -0.926748 -0.345019 -0.148659
vn -0.813955 0.487037 -0.316657
vn -0.926748 -0.345019 -0.148659
vn -0.789471 -0.583005 -0.191939
vn -0.813955 0.487037 -0.316657
vn -0.813955 0.487037 -0.316657
vn -0.789471 -0.583005 -0.191939
vn -0.875678 0.225717 -0.426896
vn -0.789471 -0.583005 -0.191939
vn -0.769518 -0.609752 -0.189853
vn -0.875678 0.225717 -0.426896
vn -0.769518 -0.609752 -0.189853
vn -0.89432 -0.444024 -0.055077
vn -0.875678 0.225717 -0.426896
vn -0.875678 0.225717 -0.426896
vn -0.89432 -0.444024 -0.055077
vn -0.867312 0.444388 -0.224253
vn -0.89432 -0.444024 -0.055077
vn -0.929065 0.303098 -0.212058
vn -0.867312 0.444388 -0.224253
vn -0.985907 0.06673 -0.153413
vn -0.89432 -0.444024 -0.055077
vn -0.632884 -0.773851 0.024738
vn -0.89432 -0.444024 -0.055077
vn -0.475881 -0.879424 0.012286
vn -0.632884 -0.773851 0.024738
vn -0.467231 -0.827979 0.310074
vn -0.475881 -0.879424 0.012286
vn -0.658679 -0.728408 0.188583
vn -0.475881 -0.879424 0.012286
vn -0.492399 -0.870215 -0.016413
vn -0.460716 -0.887541 -0.003402
vn -0.492399 -0.870215 -0.016413
vn -0.475881 -0.879424 0.012286
vn -0.469264 -0.881954 0.044136
vn -0.475881 -0.879424 0.012286
vn -0.325751 -0.906972 -0.266999
vn -0.469264 -0.881954 0.044136
vn -0.469264 -0.881954 0.044136
vn -0.325751 -0.906972 -0.266999
vn -0.176185 -0.83413 -0.522672
vn 0.433558 -0.247044 0.866601
vn 0.012871 -0.480656 0.876815
vn -0.039301 0.307158 0.950847
vn 0.081135 0.492516 0.866513
vn 0.255173 -0.075009 0.963982
vn -0.366356 0.249546 0.896387
vn -0.539729 0.674446 0.503801
vn -0.554496 -0.217376 0.803294
vn -0.830912 -0.061545 0.552989
vn -0.460716 -0.887541 -0.003402
vn -0.492399 -0.870215 -0.016413
vn -0.398395 -0.912522 0.092657
vn -0.605984 -0.742369 0.285784
vn -0.492399 -0.870215 -0.016413
vn -0.107221 -0.980218 0.16636
vn 0.130395 -0.928797 0.34689
vn -0.107221 -0.980218 0.16636
vn 0.379619 -0.903118 0.200665
vn 0.163821 -0.912007 -0.376041
vn -0.216333 -0.973004 0.080393
vn -0.176185 -0.83413 -0.522672
vn -0.176185 -0.83413 -0.522672
vn -0.216333 -0.973004 0.080393
vn -0.469264 -0.881954 0.044136
vn -0.469264 -0.881954 0.044136
vn -0.216333 -0.973004 0.080393
vn -0.492399 -0.870215 -0.016413
vn -0.216333 -0.973004 0.080393
vn -0.107221 -0.980218 0.16636
vn -0.492399 -0.870215 -0.016413
vn 0.042009 -0.196634 -0.979577
vn -0.476902 0.642096 -0.600231
vn -0.11306 0.536107 -0.836545
vn -0.476902 0.642096 -0.600231
vn -0.363954 0.836617 -0.409402
vn -0.11306 0.536107 -0.836545
vn -0.209135 0.728065 -0.652828
vn -0.363954 0.836617 -0.409402
vn 0.142907 0.957663 -0.249919
vn -0.363954 0.836617 -0.409402
vn -0.278086 0.902143 -0.329858
vn 0.142907 0.957663 -0.249919
vn 0.142907 0.957663 -0.249919
vn -0.278086 0.902143 -0.329858
vn 0.25721 0.950916 -0.17205
vn 0.25721 0.950916 -0.17205
vn -0.278086 0.902143 -0.329858
vn 0.116917 0.956471 -0.267384
vn -0.278086 0.902143 -0.329858
vn -0.307581 0.877602 -0.367706
vn 0.116917 0.956471 -0.267384
vn -0.307581 0.877602 -0.367706
vn -0.394124 0.876717 -0.275741
vn 0.116917 0.956471 -0.267384
vn 0.116917 0.956471 -0.267384
vn -0.394124 0.876717 -0.275741
vn -0.339784 0.929097 0.146031
vn -0.510141 0.857513 0.066546
vn -0.394124 0.876717 -0.275741
vn -0.542565 0.775135 -0.323711
vn -0.542565 0.775135 -0.323711
vn -0.394124 0.876717 -0.275741
vn -0.307581 0.877602 -0.367706
vn -0.782698 0.556925 -0.277881
vn -0.542565 0.775135 -0.323711
vn -0.867312 0.444388 -0.224253
vn -0.867312 0.444388 -0.224253
vn -0.542565 0.775135 -0.323711
vn -0.875678 0.225717 -0.426896
vn 0.042009 -0.196634 -0.979577
vn -0.354398 0.421331 -0.834795
vn -0.476902 0.642096 -0.600231
vn 0.042009 -0.196634 -0.979577
vn -0.35092 0.272697 -0.895819
vn 0.04277 -0.237908 -0.970345
vn -0.926748 -0.345019 -0.148659
vn -0.325751 -0.906972 -0.266999
vn -0.789471 -0.583005 -0.191939
vn -0.325751 -0.906972 -0.266999
vn -0.475881 -0.879424 0.012286
vn -0.789471 -0.583005 -0.191939
vn -0.789471 -0.583005 -0.191939
vn -0.475881 -0.879424 0.012286
vn -0.769518 -0.609752 -0.189853
vn -0.475881 -0.879424 0.012286
vn -0.89432 -0.444024 -0.055077
vn -0.769518 -0.609752 -0.189853
vn -0.637552 -0.095649 0.764447
vn 0.102624 0.447653 0.888299
vn -0.353817 0.754145 0.553245
vn -0.577606 -0.749305 0.323902
vn -0.107221 -0.980218 0.16636
vn -0.173319 -0.711225 0.681263

# mesh0059, 78 grouped triangles

usemtl mesh0059mat
o mesh0059
g mesh0059

f 1/1/1 2/2/2 3/3/3
f 2/4/4 4/5/5 3/6/6
f 3/7/7 4/8/8 5/9/9
f 4/10/10 6/11/11 5/12/12
f 5/13/13 6/14/14 7/15/15
f 6/16/16 8/17/17 7/18/18
f 9/19/19 7/20/20 8/21/21
f 9/22/22 10/23/23 7/24/24
f 11/25/25 10/26/26 9/27/27
f 12/28/28 14/29/29 13/30/30
f 13/31/31 14/32/32 15/33/33
f 16/34/34 15/35/35 17/36/36
f 15/37/37 14/38/38 17/39/39
f 17/40/40 14/41/41 18/42/42
f 19/43/43 20/44/44 6/45/45
f 6/46/46 20/47/47 8/48/48
f 20/49/49 9/50/50 8/51/51
f 9/52/52 20/53/53 21/54/54
f 20/55/55 22/56/56 21/57/57
f 23/58/58 14/59/59 24/60/60
f 14/61/61 12/62/62 24/63/63
f 24/64/64 12/65/65 25/66/66
f 26/67/67 19/68/68 27/69/69
f 27/70/70 19/71/71 4/72/72
f 19/73/73 6/74/74 4/75/75
f 22/76/76 14/77/77 28/78/78
f 26/79/79 29/80/80 19/81/81
f 19/82/82 29/83/83 20/84/84
f 29/85/85 30/86/86 20/87/87
f 20/88/88 30/89/89 22/90/90
f 4/91/91 2/92/92 12/93/93
f 12/94/94 2/95/95 25/96/96
f 2/97/97 1/98/98 25/99/99
f 25/100/100 1/101/101 24/102/102
f 1/103/103 31/104/104 24/105/105
f 24/106/106 31/107/107 23/108/108
f 31/109/109 32/110/110 23/111/111
f 32/112/112 33/113/113 23/114/114
f 23/115/115 33/116/116 34/117/117
f 33/118/118 28/119/119 34/120/120
f 28/121/121 33/122/122 35/123/123
f 33/124/124 36/125/125 35/126/126
f 35/127/127 36/128/128 37/129/129
f 36/130/130 38/131/131 37/132/132
f 38/133/133 36/134/134 39/135/135
f 36/136/136 3/137/137 39/138/138
f 39/139/139 3/140/140 5/141/141
f 28/142/142 35/143/143 22/144/144
f 22/145/145 35/146/146 37/147/147
f 22/148/148 37/149/149 40/150/150
f 37/151/151 38/152/152 40/153/153
f 40/154/154 38/155/155 11/156/156
f 21/157/157 11/158/158 9/159/159
f 7/160/160 10/161/161 5/162/162
f 5/163/163 10/164/164 39/165/165
f 39/166/166 10/167/167 38/168/168
f 10/169/169 11/170/170 38/171/171
f 4/172/172 15/173/173 27/174/174
f 15/175/175 16/176/176 27/177/177
f 27/178/178 16/179/179 26/180/180
f 16/181/181 17/182/182 26/183/183
f 26/184/184 17/185/185 29/186/186
f 29/187/187 17/188/188 30/189/189
f 17/190/190 18/191/191 30/192/192
f 18/193/193 41/194/194 30/195/195
f 30/196/196 41/197/197 22/198/198
f 22/199/199 41/200/200 14/201/201
f 14/202/202 41/203/203 18/204/204
f 28/205/205 14/206/206 34/207/207
f 34/208/208 14/209/209 23/210/210
f 4/211/211 13/212/212 15/213/213
f 4/214/214 12/215/215 13/216/216
f 1/217/217 3/218/218 31/219/219
f 3/220/220 36/221/221 31/222/222
f 31/223/223 36/224/224 32/225/225
f 36/226/226 33/227/227 32/228/228
f 40/229/229 21/230/230 22/231/231
f 40/232/232 11/233/233 21/234/234
