# Wavefront OBJ file
# Exported by Misfit Model 3D 1.3.8
# Thu Feb 14 19:12:18 2013

mtllib piece4.mtl

# 16 Vertices
v 0.54249 0.24918 0.1977
v 0.13239 0.50568 -0.2985
v 0.50499 -0.04182 0.0213
v 0.11379 0.32358 -0.3825
v -0.08451 -0.00822 -0.4455
v -0.06201 0.47568 -0.216
v -0.20691 0.48978 -0.1275
v -0.06861 0.28488 -0.2976
v -0.27231 0.23688 -0.2082
v -0.46851 -0.10272 -0.2379
v -0.41361 0.31068 -0.0771
v -0.36561 0.47448 -0.0384
v -0.00741 0.16308 0.4209
v -0.31761 -0.02832 0.1221
v 0.13839 -0.38112 -0.4482
v -0.27291 -0.34812 0.3003

# 84 Texture Coordinates
vt 0.4985 0.4189
vt 0.4398 0.6294
vt 0.4875 0.4033
vt 0.4985 0.4189
vt 0.4444 0.6313
vt 0.4398 0.6294
vt 0.4442 0.6374
vt 0.4444 0.6313
vt 0.4985 0.4189
vt 0.1325 0.4705
vt 0.1396 0.5205
vt 0.0803 0.4637
vt 0.0803 0.4637
vt 0.1396 0.5205
vt 0.0694 0.5307
vt 0.1396 0.5205
vt 0.1208 0.5978
vt 0.0694 0.5307
vt 0.0694 0.5307
vt 0.1208 0.5978
vt 0.0149 0.6253
vt -0.8404 0.4098
vt -0.8442 0.4028
vt -0.8589 0.4031
vt -0.8589 0.4031
vt -0.8442 0.4028
vt -0.8663 0.4029
vt -0.8663 0.4029
vt -0.9012 0.4027
vt -0.8736 0.4046
vt -0.8736 0.4046
vt -0.9012 0.4027
vt -0.9012 0.4038
vt -1.621 0.4258
vt -1.6253 0.4051
vt -1.6063 0.4052
vt -1.6063 0.4052
vt -1.6253 0.4051
vt -1.6076 0.3923
vt -1.6253 0.4051
vt -1.6275 0.3938
vt -1.6076 0.3923
vt 1.4544 0.4581
vt 1.4988 0.4266
vt 1.3607 0.4408
vt 0.4947 0.5844
vt 0.6525 0.5614
vt 0.4947 0.7484
vt 0.4947 0.7484
vt 0.6525 0.5614
vt 0.67 0.6944
vt 0.9571 0.6773
vt 0.8491 0.5978
vt 0.8649 0.729
vt 0.8491 0.5978
vt 0.7472 0.5761
vt 0.748 0.6473
vt -0.8404 0.4098
vt -0.8402 0.404
vt -0.8442 0.4028
vt -1.66 0.4439
vt -1.621 0.4258
vt -1.6398 0.4463
vt 0.0157 0.5087
vt 0.0803 0.4637
vt 0.0694 0.5307
vt 0.9465 0.5978
vt 0.8491 0.5978
vt 0.9571 0.6773
vt -0.8663 0.4029
vt -0.8736 0.4046
vt -0.8589 0.4031
vt 0.6525 0.5614
vt 0.4947 0.5844
vt 0.4947 0.5449
vt -1.621 0.4258
vt -1.6029 0.4301
vt -1.6398 0.4463
vt 0.0149 0.6253
vt 0.0157 0.5087
vt 0.0694 0.5307
vt -1.6029 0.4301
vt -1.621 0.4258
vt -1.5907 0.4183

# 84 Vertex Normals
vn 0.718921 0.14644 -0.679491
vn 0.234315 0.387928 -0.891408
vn 0.805117 0.228127 -0.547489
vn 0.718921 0.14644 -0.679491
vn 0.154252 0.263185 -0.952334
vn 0.234315 0.387928 -0.891408
vn -0.051355 0.103459 -0.993307
vn 0.154252 0.263185 -0.952334
vn 0.718921 0.14644 -0.679491
vn -0.435432 0.366678 -0.82216
vn -0.445466 0.393869 -0.804007
vn -0.476904 0.362524 -0.800712
vn -0.476904 0.362524 -0.800712
vn -0.445466 0.393869 -0.804007
vn -0.488218 0.381852 -0.78475
vn -0.445466 0.393869 -0.804007
vn -0.224958 0.198974 -0.953836
vn -0.488218 0.381852 -0.78475
vn -0.488218 0.381852 -0.78475
vn -0.224958 0.198974 -0.953836
vn -0.933346 0.252846 -0.254821
vn -0.740159 0.318268 -0.592343
vn -0.485795 0.333269 -0.808044
vn -0.476904 0.362524 -0.800712
vn 0.249314 0.869159 0.42709
vn -0.376943 0.603176 0.702917
vn -0.357479 0.651258 0.669382
vn -0.357479 0.651258 0.669382
vn 0.040224 0.900022 0.433985
vn 0.136241 0.89502 0.424708
vn 0.136241 0.89502 0.424708
vn 0.040224 0.900022 0.433985
vn 0.043427 0.901682 0.430214
vn -0.224958 0.198974 -0.953836
vn -0.445466 0.393869 -0.804007
vn 0.154252 0.263185 -0.952334
vn 0.154252 0.263185 -0.952334
vn -0.445466 0.393869 -0.804007
vn 0.234315 0.387928 -0.891408
vn -0.445466 0.393869 -0.804007
vn -0.435432 0.366678 -0.82216
vn 0.234315 0.387928 -0.891408
vn -0.846992 0.118056 0.518332
vn -0.247316 0.353582 0.902117
vn -0.817916 0.073116 0.570672
vn 0.245671 -0.697813 0.672832
vn -0.252443 -0.336884 0.907073
vn 0.028641 -0.953719 0.299332
vn 0.452821 -0.719538 0.526515
vn 0.436104 -0.654971 0.617112
vn 0.472441 -0.881267 0.012959
vn -0.971437 -0.057994 0.230104
vn -0.846992 0.118056 0.518332
vn -0.933346 0.252846 -0.254821
vn -0.846992 0.118056 0.518332
vn -0.938178 0.308629 -0.156747
vn -0.933346 0.252846 -0.254821
vn -0.817916 0.073116 0.570672
vn -0.247316 0.353582 0.902117
vn -0.376943 0.603176 0.702917
vn -0.000313 -0.909922 -0.414778
vn -0.08192 -0.702526 -0.706928
vn -0.016547 -0.978822 -0.204042
vn -0.740159 0.318268 -0.592343
vn -0.476904 0.362524 -0.800712
vn -0.488218 0.381852 -0.78475
vn -0.247316 0.353582 0.902117
vn -0.846992 0.118056 0.518332
vn -0.971437 -0.057994 0.230104
vn -0.357479 0.651258 0.669382
vn 0.136241 0.89502 0.424708
vn 0.249314 0.869159 0.42709
vn -0.252443 -0.336884 0.907073
vn 0.245671 -0.697813 0.672832
vn 0.390531 -0.513496 0.764073
vn -0.567805 -0.04377 -0.821999
vn -0.470657 -0.878048 0.086681
vn -0.916816 -0.394421 0.062292
vn -0.933346 0.252846 -0.254821
vn -0.740159 0.318268 -0.592343
vn -0.488218 0.381852 -0.78475
vn 0.591896 0.359029 -0.721635
vn -0.053872 0.331469 -0.941927
vn 0.718921 0.14644 -0.679491

# mesh0060, 28 grouped triangles

usemtl mesh0060mat
o mesh0060
g mesh0060

f 3/1/1 2/2/2 1/3/3
f 3/4/4 4/5/5 2/6/6
f 5/7/7 4/8/8 3/9/9
f 6/10/10 8/11/11 7/12/12
f 7/13/13 8/14/14 9/15/15
f 8/16/16 5/17/17 9/18/18
f 9/19/19 5/20/20 10/21/21
f 11/22/22 12/23/23 7/24/24
f 7/25/25 12/26/26 13/27/27
f 13/28/28 1/29/29 6/30/30
f 6/31/31 1/32/32 2/33/33
f 5/34/34 8/35/35 4/36/36
f 4/37/37 8/38/38 2/39/39
f 8/40/40 6/41/41 2/42/42
f 14/43/43 13/44/44 11/45/45
f 3/46/46 13/47/47 15/48/48
f 15/49/49 13/50/50 16/51/51
f 16/52/52 14/53/53 10/54/54
f 14/55/55 11/56/56 10/57/57
f 11/58/58 13/59/59 12/60/60
f 10/61/61 5/62/62 16/63/63
f 11/64/64 7/65/65 9/66/66
f 13/67/67 14/68/68 16/69/69
f 13/70/70 6/71/71 7/72/72
f 13/73/73 3/74/74 1/75/75
f 5/76/76 15/77/77 16/78/78
f 10/79/79 11/80/80 9/81/81
f 15/82/82 5/83/83 3/84/84
