# Wavefront OBJ file
# Exported by Misfit Model 3D 1.3.8
# Thu Feb 14 19:09:17 2013

mtllib piece2.mtl

# 16 Vertices
v 0.01929 0.40578 -0.0918
v 0.40089 -0.15192 0.1554
v -0.00141 0.37998 0.0168
v 0.37269 -0.15402 0.2088
v 0.25779 -0.23862 0.2466
v 0.32739 -0.25032 0.0996
v 0.29499 -0.24042 0.1527
v -0.10341 -0.17022 -0.0849
v -0.18261 0.12408 -0.2436
v 0.15399 -0.40422 0.009
v 0.27249 -0.32172 0.0417
v 0.20949 -0.33792 0.0933
v 0.07149 -0.40542 0.1125
v 0.20349 -0.39522 -0.0162
v 0.11379 0.01248 0.2745
v -0.34311 0.01308 -0.1701

# 84 Texture Coordinates
vt 0.4985 0.4189
vt 0.4398 0.6294
vt 0.4875 0.4033
vt 0.4985 0.4189
vt 0.4444 0.6313
vt 0.4398 0.6294
vt 0.4442 0.6374
vt 0.4444 0.6313
vt 0.4985 0.4189
vt -1.6076 0.3923
vt -1.6063 0.4052
vt -1.6275 0.3938
vt -1.6275 0.3938
vt -1.6063 0.4052
vt -1.6253 0.4051
vt -1.6063 0.4052
vt -1.621 0.4258
vt -1.6253 0.4051
vt 1.4544 0.4581
vt 1.4988 0.4266
vt 1.3607 0.4408
vt 0.1325 0.4705
vt 0.1396 0.5205
vt 0.0803 0.4637
vt 0.0803 0.4637
vt 0.1396 0.5205
vt 0.0694 0.5307
vt 0.1396 0.5205
vt 0.1208 0.5978
vt 0.0694 0.5307
vt 0.0694 0.5307
vt 0.1208 0.5978
vt 0.0149 0.6253
vt -0.8663 0.4029
vt -0.8589 0.4031
vt -0.8442 0.4028
vt -0.8442 0.4028
vt -0.8589 0.4031
vt -0.8404 0.4098
vt -0.9012 0.4027
vt -0.9012 0.4038
vt -0.8663 0.4029
vt -0.8663 0.4029
vt -0.9012 0.4038
vt -0.8736 0.4046
vt -0.8663 0.4029
vt -0.8736 0.4046
vt -0.8589 0.4031
vt 0.4947 0.5844
vt 0.6525 0.5614
vt 0.4947 0.7484
vt 0.4947 0.7484
vt 0.6525 0.5614
vt 0.67 0.6944
vt 0.9571 0.6773
vt 0.8491 0.5978
vt 0.8649 0.729
vt 0.8491 0.5978
vt 0.7472 0.5761
vt 0.748 0.6473
vt -0.8404 0.4098
vt -0.8402 0.404
vt -0.8442 0.4028
vt -1.66 0.4439
vt -1.621 0.4258
vt -1.6398 0.4463
vt 0.0157 0.5087
vt 0.0803 0.4637
vt 0.0694 0.5307
vt 0.9465 0.5978
vt 0.8491 0.5978
vt 0.9571 0.6773
vt 0.6525 0.5614
vt 0.4947 0.5844
vt 0.4947 0.5449
vt -1.621 0.4258
vt -1.6029 0.4301
vt -1.6398 0.4463
vt 0.0149 0.6253
vt 0.0157 0.5087
vt 0.0694 0.5307
vt -1.6029 0.4301
vt -1.621 0.4258
vt -1.5907 0.4183

# 84 Vertex Normals
vn 0.636307 0.570617 0.519142
vn 0.963271 0.188217 -0.191527
vn 0.839128 0.422098 -0.34307
vn 0.636307 0.570617 0.519142
vn 0.692091 -0.322289 0.645864
vn 0.963271 0.188217 -0.191527
vn 0.042822 -0.142246 0.988905
vn 0.663376 -0.153626 0.732347
vn 0.172267 0.744763 0.644711
vn 0.963271 0.188217 -0.191527
vn 0.692091 -0.322289 0.645864
vn 0.817149 -0.566404 -0.107024
vn 0.557428 -0.724309 0.405772
vn 0.692091 -0.322289 0.645864
vn 0.563763 -0.738104 0.37064
vn 0.764517 -0.473629 0.437252
vn 0.555473 -0.644261 0.525716
vn 0.563763 -0.738104 0.37064
vn -0.286171 -0.645986 -0.707678
vn 0.303215 -0.20407 -0.930815
vn -0.007469 -0.928169 -0.372084
vn 0.557428 -0.724309 0.405772
vn 0.563763 -0.738104 0.37064
vn 0.479126 -0.767168 0.426488
vn 0.479126 -0.767168 0.426488
vn 0.563763 -0.738104 0.37064
vn 0.512658 -0.783164 0.351903
vn 0.563763 -0.738104 0.37064
vn 0.555473 -0.644261 0.525716
vn 0.512658 -0.783164 0.351903
vn 0.512658 -0.783164 0.351903
vn 0.326165 -0.442371 0.835419
vn -0.17503 -0.968674 0.176166
vn 0.303215 -0.20407 -0.930815
vn 0.605453 0.113992 -0.787676
vn 0.174831 -0.282975 -0.943058
vn 0.395874 -0.768105 0.503288
vn 0.479126 -0.767168 0.426488
vn 0.241008 -0.943632 0.22688
vn 0.839128 0.422098 -0.34307
vn 0.963271 0.188217 -0.191527
vn 0.303215 -0.20407 -0.930815
vn 0.303215 -0.20407 -0.930815
vn 0.963271 0.188217 -0.191527
vn 0.807518 -0.216608 -0.548631
vn 0.303215 -0.20407 -0.930815
vn 0.807518 -0.216608 -0.548631
vn 0.605453 0.113992 -0.787676
vn -0.67777 0.43297 0.594277
vn -0.761037 0.557458 0.331757
vn -0.754665 0.19518 0.626406
vn -0.447024 0.409448 0.795313
vn -0.761037 0.557458 0.331757
vn -0.641682 0.153085 0.751538
vn -0.500271 -0.783332 -0.368945
vn -0.286171 -0.645986 -0.707678
vn 0.002773 -0.996816 -0.07969
vn -0.286171 -0.645986 -0.707678
vn 0.085434 -0.975479 -0.202836
vn 0.002773 -0.996816 -0.07969
vn -0.007469 -0.928169 -0.372084
vn 0.303215 -0.20407 -0.930815
vn 0.174831 -0.282975 -0.943058
vn 0.14205 -0.720612 0.678631
vn -0.238177 -0.297721 0.924464
vn -0.641682 0.153085 0.751538
vn 0.085434 -0.975479 -0.202836
vn 0.479126 -0.767168 0.426488
vn 0.512658 -0.783164 0.351903
vn 0.303215 -0.20407 -0.930815
vn -0.286171 -0.645986 -0.707678
vn -0.223637 -0.635819 -0.738729
vn -0.761037 0.557458 0.331757
vn -0.67777 0.43297 0.594277
vn -0.808972 0.587666 -0.014585
vn 0.134162 -0.57415 0.807684
vn -0.754665 0.19518 0.626406
vn -0.822468 -0.152121 0.548092
vn -0.17503 -0.968674 0.176166
vn 0.085434 -0.975479 -0.202836
vn 0.512658 -0.783164 0.351903
vn 0.301216 0.844788 0.44227
vn 0.71252 -0.396115 0.579144
vn 0.636307 0.570617 0.519142

# mesh0055, 28 grouped triangles

usemtl mesh0055mat
o mesh0055
g mesh0055

f 3/1/1 2/2/2 1/3/3
f 3/4/4 4/5/5 2/6/6
f 5/7/7 4/8/8 3/9/9
f 2/10/10 4/11/11 6/12/12
f 6/13/13 4/14/14 7/15/15
f 4/16/16 5/17/17 7/18/18
f 8/19/19 9/20/20 10/21/21
f 6/22/22 7/23/23 11/24/24
f 11/25/25 7/26/26 12/27/27
f 7/28/28 5/29/29 12/30/30
f 12/31/31 5/32/32 13/33/33
f 9/34/34 11/35/35 14/36/36
f 14/37/37 11/38/38 10/39/39
f 1/40/40 2/41/41 9/42/42
f 9/43/43 2/44/44 6/45/45
f 9/46/46 6/47/47 11/48/48
f 3/49/49 9/50/50 15/51/51
f 15/52/52 9/53/53 16/54/54
f 16/55/55 8/56/56 13/57/57
f 8/58/58 10/59/59 13/60/60
f 10/61/61 9/62/62 14/63/63
f 13/64/64 5/65/65 16/66/66
f 10/67/67 11/68/68 12/69/69
f 9/70/70 8/71/71 16/72/72
f 9/73/73 3/74/74 1/75/75
f 5/76/76 15/77/77 16/78/78
f 13/79/79 10/80/80 12/81/81
f 15/82/82 5/83/83 3/84/84
