# Wavefront OBJ file
# Exported by Misfit Model 3D 1.3.8
# Thu Feb 14 19:13:24 2013

mtllib piece5.mtl

# 41 Vertices
v -0.141438 0.184554 0.5391
v -0.139938 0.237954 0.5319
v -0.192138 0.272454 0.3567
v 0.020262 0.291654 0.3492
v -0.236538 0.279054 0.1866
v 0.102462 0.409854 -0.1596
v -0.289638 0.339354 -0.0201
v 0.038862 0.449154 -0.4506
v -0.288138 -0.049746 -0.1158
v 0.019362 0.144654 -0.5367
v -0.287838 0.159954 -0.0747
v -0.052938 0.193254 0.4899
v 0.045762 0.257754 0.4392
v 0.074262 -0.086646 0.3417
v 0.139962 0.250554 0.3282
v 0.210162 0.279054 0.2883
v 0.216762 0.112554 0.2394
v 0.245562 0.022554 0.2433
v 0.181062 0.330054 0.0642
v 0.150162 0.152154 -0.1275
v -0.142638 -0.411546 -0.3444
v 0.285162 -0.366846 0.1749
v -0.096438 -0.023346 0.5316
v -0.109638 0.078954 0.5007
v -0.120438 0.181254 0.5442
v 0.219762 0.299454 0.2505
v 0.203562 0.338154 0.264
v -0.034938 -0.517746 0.3885
v 0.225162 0.134754 0.1986
v 0.252462 0.033054 0.1965
v -0.121938 0.081054 0.495
v -0.119238 -0.029046 0.5163
v -0.100038 -0.245346 0.4554
v -0.085938 -0.249546 0.4626
v -0.136938 -0.383346 0.3102
v -0.170238 0.022254 0.3279
v -0.193038 -0.287046 0.129
v -0.232938 -0.104346 0.0231
v -0.231438 0.097554 0.1167
v -0.227538 -0.322746 0.0117
v 0.243762 -0.130146 0.2187

# 234 Texture Coordinates
vt -0.8414 0.4045
vt -0.8442 0.4028
vt -0.8589 0.4031
vt -0.8442 0.4028
vt -0.8589 0.4031
vt -0.8589 0.4031
vt -0.8589 0.4031
vt -0.8589 0.4031
vt -0.8736 0.4046
vt -0.8589 0.4031
vt -0.8737 0.4033
vt -0.8736 0.4046
vt -0.8736 0.4046
vt -0.8737 0.4033
vt -0.9012 0.4038
vt -0.8737 0.4033
vt -0.9012 0.4027
vt -0.9012 0.4038
vt 0.4444 0.6313
vt 0.4985 0.4189
vt 0.4442 0.6374
vt 0.4444 0.6313
vt 0.4875 0.4033
vt 0.4985 0.4189
vt 0.4398 0.6294
vt 0.4875 0.4033
vt 0.4444 0.6313
vt 1.3958 0.4158
vt 1.4544 0.4581
vt 1.4502 0.4065
vt 1.4502 0.4065
vt 1.4544 0.4581
vt 1.5057 0.4134
vt 1.5439 0.4103
vt 1.5057 0.4134
vt 1.5444 0.4446
vt 1.5057 0.4134
vt 1.4544 0.4581
vt 1.5444 0.4446
vt 1.5444 0.4446
vt 1.4544 0.4581
vt 1.5525 0.4688
vt 0.6553 0.5449
vt 0.6138 0.5848
vt 0.579 0.5408
vt 0.579 0.5408
vt 0.6138 0.5848
vt 0.4947 0.5449
vt 0.6138 0.5848
vt 0.4947 0.5844
vt 0.4947 0.5449
vt 0.4947 0.5844
vt 0.6138 0.5848
vt 0.4947 0.7484
vt 0.6138 0.5848
vt 0.67 0.6944
vt 0.4947 0.7484
vt 1.3611 0.47
vt 1.4544 0.4581
vt 1.363 0.437
vt 1.4544 0.4581
vt 1.3958 0.4158
vt 1.363 0.437
vt 1.363 0.437
vt 1.3958 0.4158
vt 1.3581 0.4153
vt -0.8414 0.4045
vt -0.859 0.4047
vt -0.8442 0.4028
vt -0.8442 0.4028
vt -0.859 0.4047
vt -0.8589 0.4031
vt -0.859 0.4047
vt -0.8827 0.404
vt -0.8589 0.4031
vt 0.9571 0.6773
vt 0.8491 0.5978
vt 0.8649 0.729
vt 0.7064 0.5428
vt 0.7032 0.5768
vt 0.6553 0.5449
vt 0.6553 0.5449
vt 0.7032 0.5768
vt 0.6138 0.5848
vt 0.7032 0.5768
vt 0.7125 0.6111
vt 0.6138 0.5848
vt 0.6138 0.5848
vt 0.7125 0.6111
vt 0.67 0.6944
vt -0.8431 0.4031
vt -0.8442 0.4028
vt -0.8398 0.4048
vt -0.8398 0.4048
vt -0.8442 0.4028
vt -0.8398 0.4048
vt -0.8442 0.4028
vt -0.8414 0.4045
vt -0.8398 0.4048
vt -0.8398 0.4048
vt -0.8414 0.4045
vt -0.842 0.4094
vt -0.8414 0.4045
vt -0.8431 0.4093
vt -0.842 0.4094
vt -0.842 0.4094
vt -0.8431 0.4093
vt -0.8369 0.4153
vt -0.8431 0.4093
vt -0.8392 0.4156
vt -0.8369 0.4153
vt -0.8392 0.4156
vt -0.8402 0.4235
vt -0.8369 0.4153
vt -0.8369 0.4153
vt -0.8402 0.4235
vt -0.8388 0.4236
vt -0.8402 0.4235
vt -0.8345 0.4299
vt -0.8388 0.4236
vt -0.0066 0.6493
vt 0.0081 0.593
vt 0.0432 0.6334
vt 0.0081 0.593
vt 0.0694 0.5307
vt 0.0432 0.6334
vt 0.0432 0.6334
vt 0.0694 0.5307
vt 0.0926 0.6296
vt 0.0694 0.5307
vt 0.149 0.5659
vt 0.0926 0.6296
vt 0.149 0.5659
vt 0.0694 0.5307
vt 0.1396 0.5205
vt 0.0694 0.5307
vt 0.0803 0.4637
vt 0.1396 0.5205
vt 0.1396 0.5205
vt 0.0803 0.4637
vt 0.1325 0.4705
vt -1.662 0.4465
vt -1.658 0.4413
vt -1.6398 0.4463
vt -1.6398 0.4463
vt -1.658 0.4413
vt -1.6427 0.4378
vt -1.6398 0.4463
vt -1.6427 0.4378
vt -1.624 0.4317
vt -1.6427 0.4378
vt -1.6271 0.4248
vt -1.624 0.4317
vt -1.624 0.4317
vt -1.6271 0.4248
vt -1.6052 0.4203
vt -1.6029 0.4301
vt -1.6052 0.4203
vt -1.5907 0.4183
vt -1.6076 0.3923
vt -1.6063 0.4052
vt -1.6275 0.3938
vt -1.6275 0.3938
vt -1.6063 0.4052
vt -1.6253 0.4051
vt -1.6253 0.4051
vt -1.6063 0.4052
vt -1.6271 0.4248
vt -1.6063 0.4052
vt -1.6061 0.4144
vt -1.6271 0.4248
vt -0.8431 0.4031
vt -0.8398 0.4048
vt -0.8442 0.4028
vt -0.8398 0.4048
vt -0.8398 0.4048
vt -0.8442 0.4028
vt -0.8442 0.4028
vt -0.8398 0.4048
vt -0.8414 0.4045
vt -0.8398 0.4048
vt -0.8425 0.4108
vt -0.8414 0.4045
vt -0.8414 0.4045
vt -0.8425 0.4108
vt -0.846 0.4103
vt -0.846 0.4103
vt -0.8425 0.4108
vt -0.8407 0.416
vt -0.8425 0.4108
vt -0.8369 0.4153
vt -0.8407 0.416
vt -0.8369 0.4153
vt -0.8388 0.4236
vt -0.8407 0.416
vt -0.8407 0.416
vt -0.8388 0.4236
vt -0.8362 0.4277
vt 0.9571 0.6773
vt 0.9439 0.6131
vt 0.8491 0.5978
vt 0.8491 0.5978
vt 0.9439 0.6131
vt 0.9492 0.5826
vt 0.7469 0.6719
vt 0.8491 0.5978
vt 0.749 0.6226
vt 0.749 0.6226
vt 0.8491 0.5978
vt 0.7472 0.5761
vt -0.8431 0.4031
vt -0.8377 0.4043
vt -0.8398 0.4048
vt -0.8431 0.4031
vt -0.8398 0.4048
vt -0.8377 0.4043
vt 0.0193 0.4772
vt 0.0803 0.4637
vt 0.02 0.5056
vt 0.0803 0.4637
vt 0.0694 0.5307
vt 0.02 0.5056
vt 0.02 0.5056
vt 0.0694 0.5307
vt 0.0077 0.5432
vt 0.0694 0.5307
vt 0.0081 0.593
vt 0.0077 0.5432
vt -1.624 0.4317
vt -1.6029 0.4301
vt -1.6398 0.4463
vt -1.624 0.4317
vt -1.6052 0.4203
vt -1.6029 0.4301

# 234 Vertex Normals
vn -0.66379 -0.201607 0.720234
vn -0.550431 0.519516 0.653551
vn -0.920879 0.26766 0.283442
vn -0.036061 0.575125 0.81727
vn 0.064047 0.931703 0.357529
vn -0.818192 0.487518 0.304775
vn -0.468417 0.850304 0.239936
vn 0.064047 0.931703 0.357529
vn -0.403627 0.88216 0.242648
vn 0.064047 0.931703 0.357529
vn -0.033013 0.972766 0.229428
vn -0.744758 0.599244 0.293671
vn -0.744758 0.599244 0.293671
vn 0.202493 0.963982 0.172442
vn -0.695966 0.717033 0.038666
vn -0.033013 0.972766 0.229428
vn -0.72305 0.563465 -0.399632
vn -0.695966 0.717033 0.038666
vn -0.995225 0.017079 -0.096103
vn -0.819625 0.118149 -0.560585
vn -0.990029 -0.054106 -0.130056
vn -0.995225 0.017079 -0.096103
vn -0.72305 0.563465 -0.399632
vn -0.819625 0.118149 -0.560585
vn -0.695966 0.717033 0.038666
vn -0.72305 0.563465 -0.399632
vn -0.995225 0.017079 -0.096103
vn 0.5991 0.049417 0.799148
vn 0.62418 -0.061063 0.778891
vn 0.673823 0.243845 0.697497
vn 0.673823 0.243845 0.697497
vn 0.62418 -0.061063 0.778891
vn 0.561458 0.242719 0.791108
vn 0.767354 0.11017 0.631689
vn 0.561458 0.242719 0.791108
vn 0.847146 0.05343 0.528667
vn 0.561458 0.242719 0.791108
vn 0.62418 -0.061063 0.778891
vn 0.847146 0.05343 0.528667
vn 0.847146 0.05343 0.528667
vn 0.62418 -0.061063 0.778891
vn 0.81092 0.085255 0.578913
vn 0.917325 0.377565 -0.126333
vn 0.952084 0.02867 -0.304489
vn 0.863204 0.497117 -0.088054
vn 0.688512 0.724786 0.025244
vn 0.952084 0.02867 -0.304489
vn 0.964307 0.090767 -0.248745
vn 0.952084 0.02867 -0.304489
vn 0.939772 -0.168634 -0.297306
vn 0.964307 0.090767 -0.248745
vn 0.939772 -0.168634 -0.297306
vn 0.952084 0.02867 -0.304489
vn 0.678297 -0.665949 -0.310524
vn 0.952084 0.02867 -0.304489
vn 0.717113 -0.496655 -0.488961
vn 0.848395 -0.264165 -0.45874
vn -0.103345 -0.018842 0.994467
vn 0.62418 -0.061063 0.778891
vn 0.173033 -0.156418 0.972416
vn 0.62418 -0.061063 0.778891
vn 0.5991 0.049417 0.799148
vn 0.173033 -0.156418 0.972416
vn 0.173033 -0.156418 0.972416
vn 0.5991 0.049417 0.799148
vn 0.203219 -0.045884 0.978058
vn 0.984307 0.146222 0.098788
vn 0.814949 0.566534 -0.122058
vn 0.570415 0.64155 0.512875
vn 0.425544 0.732649 0.531166
vn 0.352562 0.934425 0.050502
vn 0.064047 0.931703 0.357529
vn 0.814949 0.566534 -0.122058
vn 0.39509 0.913684 0.095316
vn 0.064047 0.931703 0.357529
vn 0.639987 -0.461783 0.614144
vn 0.62418 -0.061063 0.778891
vn 0.285811 -0.181438 0.940953
vn 0.984307 0.146222 0.098788
vn 0.991243 0.130248 -0.021736
vn 0.917325 0.377565 -0.126333
vn 0.917325 0.377565 -0.126333
vn 0.991243 0.130248 -0.021736
vn 0.952084 0.02867 -0.304489
vn 0.991243 0.130248 -0.021736
vn 0.978062 0.158123 0.135619
vn 0.952084 0.02867 -0.304489
vn 0.952084 0.02867 -0.304489
vn 0.978062 0.158123 0.135619
vn 0.940764 -0.035263 0.337222
vn 0.064047 0.931703 0.357529
vn 0.245983 0.585807 0.772219
vn 0.499165 0.215739 0.83922
vn 0.499165 0.215739 0.83922
vn 0.245983 0.585807 0.772219
vn 0.203219 -0.045884 0.978058
vn -0.036061 0.575125 0.81727
vn -0.66379 -0.201607 0.720234
vn 0.203219 -0.045884 0.978058
vn 0.203219 -0.045884 0.978058
vn -0.66379 -0.201607 0.720234
vn 0.173033 -0.156418 0.972416
vn -0.66379 -0.201607 0.720234
vn -0.794655 -0.072975 0.602659
vn 0.173033 -0.156418 0.972416
vn 0.173033 -0.156418 0.972416
vn -0.794655 -0.072975 0.602659
vn -0.103345 -0.018842 0.994467
vn -0.794655 -0.072975 0.602659
vn -0.813395 -0.069178 0.577584
vn -0.103345 -0.018842 0.994467
vn -0.813395 -0.069178 0.577584
vn -0.743208 -0.251776 0.61988
vn -0.103345 -0.018842 0.994467
vn -0.103345 -0.018842 0.994467
vn -0.743208 -0.251776 0.61988
vn 0.1091 -0.266425 0.957661
vn -0.743208 -0.251776 0.61988
vn -0.027714 -0.259488 0.965349
vn 0.1091 -0.266425 0.957661
vn -0.66915 -0.324148 0.668705
vn -0.743208 -0.251776 0.61988
vn -0.878686 -0.433533 0.199897
vn -0.743208 -0.251776 0.61988
vn -0.960882 -0.089432 0.262122
vn -0.878686 -0.433533 0.199897
vn -0.834641 -0.549796 -0.033169
vn -0.960882 -0.089432 0.262122
vn -0.831067 -0.527911 0.175037
vn -0.960882 -0.089432 0.262122
vn -0.955314 -0.073045 0.286424
vn -0.831067 -0.527911 0.175037
vn -0.955314 -0.073045 0.286424
vn -0.960882 -0.089432 0.262122
vn -0.963081 -0.113592 0.244074
vn -0.960882 -0.089432 0.262122
vn -0.954003 0.087089 0.286869
vn -0.963081 -0.113592 0.244074
vn -0.963081 -0.113592 0.244074
vn -0.962153 -0.106629 0.250781
vn -0.842555 0.429505 0.325002
vn -0.22006 -0.610338 -0.760961
vn -0.57121 -0.704592 -0.421034
vn 0.028329 -0.940486 -0.338648
vn 0.028329 -0.940486 -0.338648
vn -0.834641 -0.549796 -0.033169
vn -0.740963 -0.659702 0.125568
vn 0.133515 -0.954846 0.26541
vn -0.831067 -0.527911 0.175037
vn -0.787753 -0.559877 0.256874
vn -0.888951 -0.32658 0.321109
vn -0.955314 -0.073045 0.286424
vn -0.787753 -0.559877 0.256874
vn -0.787753 -0.559877 0.256874
vn -0.955314 -0.073045 0.286424
vn -0.990029 -0.054106 -0.130056
vn -0.915679 -0.127398 -0.381184
vn -0.990029 -0.054106 -0.130056
vn -0.819625 0.118149 -0.560585
vn -0.695966 0.717033 0.038666
vn -0.995225 0.017079 -0.096103
vn -0.744758 0.599244 0.293671
vn -0.842555 0.429505 0.325002
vn -0.995225 0.017079 -0.096103
vn -0.963081 -0.113592 0.244074
vn -0.963081 -0.113592 0.244074
vn -0.995225 0.017079 -0.096103
vn -0.955314 -0.073045 0.286424
vn -0.995225 0.017079 -0.096103
vn -0.990029 -0.054106 -0.130056
vn -0.955314 -0.073045 0.286424
vn 0.064047 0.931703 0.357529
vn 0.561458 0.242719 0.791108
vn 0.570415 0.64155 0.512875
vn 0.561458 0.242719 0.791108
vn 0.767354 0.11017 0.631689
vn 0.570415 0.64155 0.512875
vn 0.702259 0.427505 0.569274
vn 0.767354 0.11017 0.631689
vn 0.984307 0.146222 0.098788
vn 0.767354 0.11017 0.631689
vn 0.847146 0.05343 0.528667
vn 0.984307 0.146222 0.098788
vn 0.984307 0.146222 0.098788
vn 0.847146 0.05343 0.528667
vn 0.991243 0.130248 -0.021736
vn 0.991243 0.130248 -0.021736
vn 0.847146 0.05343 0.528667
vn 0.978062 0.158123 0.135619
vn 0.847146 0.05343 0.528667
vn 0.81092 0.085255 0.578913
vn 0.978062 0.158123 0.135619
vn 0.81092 0.085255 0.578913
vn 0.78028 -0.049498 0.623469
vn 0.978062 0.158123 0.135619
vn 0.978062 0.158123 0.135619
vn 0.78028 -0.049498 0.623469
vn 0.940764 -0.035263 0.337222
vn 0.639987 -0.461783 0.614144
vn 0.78028 -0.049498 0.623469
vn 0.62418 -0.061063 0.778891
vn 0.62418 -0.061063 0.778891
vn 0.78028 -0.049498 0.623469
vn 0.81092 0.085255 0.578913
vn 0.285811 -0.181438 0.940953
vn 0.62418 -0.061063 0.778891
vn 0.1091 -0.266425 0.957661
vn 0.1091 -0.266425 0.957661
vn 0.62418 -0.061063 0.778891
vn -0.103345 -0.018842 0.994467
vn 0.064047 0.931703 0.357529
vn 0.454783 0.500594 0.736599
vn 0.561458 0.242719 0.791108
vn 0.064047 0.931703 0.357529
vn 0.298679 0.651143 0.697713
vn 0.007249 0.936467 0.350682
vn -0.66379 -0.201607 0.720234
vn -0.962153 -0.106629 0.250781
vn -0.794655 -0.072975 0.602659
vn -0.954003 0.087089 0.286869
vn -0.960882 -0.089432 0.262122
vn -0.794655 -0.072975 0.602659
vn -0.794655 -0.072975 0.602659
vn -0.960882 -0.089432 0.262122
vn -0.813395 -0.069178 0.577584
vn -0.960882 -0.089432 0.262122
vn -0.743208 -0.251776 0.61988
vn -0.813395 -0.069178 0.577584
vn -0.787753 -0.559877 0.256874
vn -0.124381 -0.98238 -0.139496
vn 0.133515 -0.954846 0.26541
vn -0.787753 -0.559877 0.256874
vn -0.990029 -0.054106 -0.130056
vn -0.822269 -0.521825 -0.227096

# mesh0063, 78 grouped triangles

usemtl mesh0063mat
o mesh0063
g mesh0063

f 1/1/1 2/2/2 3/3/3
f 2/4/4 4/5/5 3/6/6
f 3/7/7 4/8/8 5/9/9
f 4/10/10 6/11/11 5/12/12
f 5/13/13 6/14/14 7/15/15
f 6/16/16 8/17/17 7/18/18
f 11/19/19 10/20/20 9/21/21
f 11/22/22 8/23/23 10/24/24
f 7/25/25 8/26/26 11/27/27
f 12/28/28 14/29/29 13/30/30
f 13/31/31 14/32/32 15/33/33
f 16/34/34 15/35/35 17/36/36
f 15/37/37 14/38/38 17/39/39
f 17/40/40 14/41/41 18/42/42
f 19/43/43 20/44/44 6/45/45
f 6/46/46 20/47/47 8/48/48
f 20/49/49 10/50/50 8/51/51
f 10/52/52 20/53/53 21/54/54
f 20/55/55 22/56/56 21/57/57
f 23/58/58 14/59/59 24/60/60
f 14/61/61 12/62/62 24/63/63
f 24/64/64 12/65/65 25/66/66
f 26/67/67 19/68/68 27/69/69
f 27/70/70 19/71/71 4/72/72
f 19/73/73 6/74/74 4/75/75
f 22/76/76 14/77/77 28/78/78
f 26/79/79 29/80/80 19/81/81
f 19/82/82 29/83/83 20/84/84
f 29/85/85 30/86/86 20/87/87
f 20/88/88 30/89/89 22/90/90
f 4/91/91 2/92/92 12/93/93
f 12/94/94 2/95/95 25/96/96
f 2/97/97 1/98/98 25/99/99
f 25/100/100 1/101/101 24/102/102
f 1/103/103 31/104/104 24/105/105
f 24/106/106 31/107/107 23/108/108
f 31/109/109 32/110/110 23/111/111
f 32/112/112 33/113/113 23/114/114
f 23/115/115 33/116/116 34/117/117
f 33/118/118 28/119/119 34/120/120
f 28/121/121 33/122/122 35/123/123
f 33/124/124 36/125/125 35/126/126
f 35/127/127 36/128/128 37/129/129
f 36/130/130 38/131/131 37/132/132
f 38/133/133 36/134/134 39/135/135
f 36/136/136 3/137/137 39/138/138
f 39/139/139 3/140/140 5/141/141
f 28/142/142 35/143/143 22/144/144
f 22/145/145 35/146/146 37/147/147
f 22/148/148 37/149/149 40/150/150
f 37/151/151 38/152/152 40/153/153
f 40/154/154 38/155/155 9/156/156
f 21/157/157 9/158/158 10/159/159
f 7/160/160 11/161/161 5/162/162
f 5/163/163 11/164/164 39/165/165
f 39/166/166 11/167/167 38/168/168
f 11/169/169 9/170/170 38/171/171
f 4/172/172 15/173/173 27/174/174
f 15/175/175 16/176/176 27/177/177
f 27/178/178 16/179/179 26/180/180
f 16/181/181 17/182/182 26/183/183
f 26/184/184 17/185/185 29/186/186
f 29/187/187 17/188/188 30/189/189
f 17/190/190 18/191/191 30/192/192
f 18/193/193 41/194/194 30/195/195
f 30/196/196 41/197/197 22/198/198
f 22/199/199 41/200/200 14/201/201
f 14/202/202 41/203/203 18/204/204
f 28/205/205 14/206/206 34/207/207
f 34/208/208 14/209/209 23/210/210
f 4/211/211 13/212/212 15/213/213
f 4/214/214 12/215/215 13/216/216
f 1/217/217 3/218/218 31/219/219
f 3/220/220 36/221/221 31/222/222
f 31/223/223 36/224/224 32/225/225
f 36/226/226 33/227/227 32/228/228
f 40/229/229 21/230/230 22/231/231
f 40/232/232 9/233/233 21/234/234
